<?xml version="1.0" standalone="no"?><!DOCTYPE svg PUBLIC "-//W3C//DTD SVG 1.1//EN" "http://www.w3.org/Graphics/SVG/1.1/DTD/svg11.dtd"><svg t="1585204483502" class="icon" viewBox="0 0 1024 1024" version="1.1" xmlns="http://www.w3.org/2000/svg" p-id="6215" xmlns:xlink="http://www.w3.org/1999/xlink" width="64" height="64"><defs><style type="text/css"></style></defs><path d="M723.0464 239.7184c69.12 0 142.3872 38.0416 194.56 103.8336-171.008 94.7712-143.2064 341.7088 29.5936 407.7056-23.808 53.248-35.1744 77.056-65.792 124.2112-42.752 65.7408-102.912 147.6608-177.6128 148.3776-66.304 0.6144-83.3536-43.6736-173.3632-43.1616-90.0096 0.512-108.8 43.9296-175.104 43.3152-74.6496-0.7168-131.7376-74.6496-174.4896-140.4416C61.3376 699.648 48.8448 483.84 122.5728 369.152 174.9504 287.5392 257.536 239.7696 335.2576 239.7696c79.104 0 128.8192 43.8784 194.2528 43.8784 63.488 0 102.0928-43.9296 193.536-43.9296zM702.976 0c9.216 62.208-16.0768 123.136-49.3056 166.2464-35.584 46.1824-96.8704 81.9712-156.16 80.128-10.752-59.5456 16.9984-120.832 50.688-162.1504C585.216 38.656 648.704 3.7888 702.976 0z" fill="#555555" p-id="6216"></path></svg>