<?xml version="1.0" standalone="no"?><!DOCTYPE svg PUBLIC "-//W3C//DTD SVG 1.1//EN" "http://www.w3.org/Graphics/SVG/1.1/DTD/svg11.dtd"><svg t="1584427911493" class="icon" viewBox="0 0 1024 1024" version="1.1" xmlns="http://www.w3.org/2000/svg" p-id="3116" xmlns:xlink="http://www.w3.org/1999/xlink" width="64" height="64"><defs><style type="text/css"></style></defs><path d="M893.44 320l0 573.056c0 35.328-22.336 64-57.6 64L256 957.056c-35.328 0-64-28.672-64-64L192 320 128 320l0 0c0-35.392 28.672-64 64-64l64 0L254.336 256l131.2 0L385.536 192c0-35.392 25.408-64 60.8-64l195.2 0c35.392 0 60.8 28.608 60.8 64l0 64 131.2 0 2.304 0 57.6 0c35.328 0 64 28.608 64 64l0 0L893.44 320zM641.472 192l-195.2 0 0 64 195.2 0L641.472 192zM833.472 320l-579.2 0 0 577.088 579.2 0L833.472 320zM445.504 704 385.472 704 385.472 448l60.032 0L445.504 704zM702.336 704l-60.8 0L641.536 448l60.8 0L702.336 704z" p-id="3117"></path></svg>