<?xml version="1.0" standalone="no"?><!DOCTYPE svg PUBLIC "-//W3C//DTD SVG 1.1//EN" "http://www.w3.org/Graphics/SVG/1.1/DTD/svg11.dtd"><svg t="1585205887019" class="icon" viewBox="0 0 1024 1024" version="1.1" xmlns="http://www.w3.org/2000/svg" p-id="6984" xmlns:xlink="http://www.w3.org/1999/xlink" width="64" height="64"><defs><style type="text/css"></style></defs><path d="M985.742 749.936c0 130.902-106.178 236.964-237.13 236.964H274.336c-130.994 0-237.132-106.062-237.132-236.964V276.018c0-130.864 106.138-236.966 237.132-236.966h474.274c130.954 0 237.13 106.102 237.13 236.966v473.918z" fill="#FF3A21" p-id="6985"></path><path d="M668.33 614.984h25.474a12.334 12.334 0 0 0 12.352-12.342v-89.506h89.386c6.794 0 12.352-5.554 12.352-12.38v-25.494c0-6.828-5.556-12.38-12.352-12.38h-89.386v-89.516a12.36 12.36 0 0 0-12.352-12.342h-25.474c-6.832 0-12.388 5.554-12.388 12.342v89.516h-89.388c-6.79 0-12.348 5.554-12.348 12.38v25.494c0 6.826 5.558 12.38 12.348 12.38h89.388v89.506c0 6.826 5.556 12.342 12.388 12.342z" fill="#FFFFFF" p-id="6986"></path><path d="M316.212 770.878c22.618 5.746 46.934 8.678 72.182 8.678 22.696 0 44.31-2.97 64.302-8.754 62.332-18.09 102.626-64.026 102.626-117.094 0-50.874-16.326-81.342-60.172-112.39-18.794-13.334-35.894-32.85-36.204-38.866 0-10.954 0.964-16.162 25.474-35.29 31.686-24.8 49.134-57.468 49.134-91.948 0-31.278-9.534-59.046-25.822-78.564h12.622a12.406 12.406 0 0 0 7.256-2.314l35.16-25.534a12.246 12.246 0 0 0 4.516-13.808 12.384 12.384 0 0 0-11.774-8.6h-157.238c-17.212 0-34.708 3.008-51.844 8.948-57.314 19.786-97.376 68.652-97.376 118.908 0 71.042 54.998 124.962 128.572 126.66-1.428 5.63-2.162 11.184-2.162 16.622 0 10.956 2.78 21.318 8.492 31.348-0.696 0.04-1.312 0.04-2.046 0.04-70.1 0-133.396 34.44-157.402 85.7-6.292 13.304-9.458 26.766-9.458 40.072 0 12.958 3.322 25.376 9.804 37.102 15.134 27.034 47.554 48.014 91.358 59.084z m14.01-398.594c-3.394-26.034 2.046-49.406 15.014-64.216 8.376-9.564 19.336-14.578 31.62-14.578l1.428 0.038c34.734 1.002 67.966 39.764 74.102 86.394 3.436 26.112-2.354 50.64-15.476 65.644-8.376 9.564-19.18 14.618-31.996 14.618H404.334c-34.048-1.006-68.012-41.308-74.112-87.9z m66.82 216.01l1.428 0.04c11.656 0.116 23.002 1.852 33.732 5.128 3.668 2.506 7.218 4.938 10.652 7.252 24.78 16.93 41.144 28.116 45.738 46.048 1.042 4.474 1.582 8.988 1.582 13.346 0 46.128-34.35 69.5-102.086 69.5-51.38 0-91.558-31.548-91.558-71.814 0-37.022 46.97-69.5 100.512-69.5z" fill="#FFFFFF" p-id="6987"></path><path d="M668.33 614.984h25.474a12.334 12.334 0 0 0 12.352-12.342v-89.506h89.386c6.794 0 12.352-5.554 12.352-12.38v-25.494c0-6.828-5.556-12.38-12.352-12.38h-89.386v-89.516a12.36 12.36 0 0 0-12.352-12.342h-25.474c-6.832 0-12.388 5.554-12.388 12.342v89.516h-89.388c-6.79 0-12.348 5.554-12.348 12.38v25.494c0 6.826 5.558 12.38 12.348 12.38h89.388v89.506c0 6.826 5.556 12.342 12.388 12.342z" fill="#FFFFFF" p-id="6988"></path><path d="M316.212 770.878c22.618 5.746 46.934 8.678 72.182 8.678 22.696 0 44.31-2.97 64.302-8.754 62.332-18.09 102.626-64.026 102.626-117.094 0-50.874-16.326-81.342-60.172-112.39-18.794-13.334-35.894-32.85-36.204-38.866 0-10.954 0.964-16.162 25.474-35.29 31.686-24.8 49.134-57.468 49.134-91.948 0-31.278-9.534-59.046-25.822-78.564h12.622a12.406 12.406 0 0 0 7.256-2.314l35.16-25.534a12.246 12.246 0 0 0 4.516-13.808 12.384 12.384 0 0 0-11.774-8.6h-157.238c-17.212 0-34.708 3.008-51.844 8.948-57.314 19.786-97.376 68.652-97.376 118.908 0 71.042 54.998 124.962 128.572 126.66-1.428 5.63-2.162 11.184-2.162 16.622 0 10.956 2.78 21.318 8.492 31.348-0.696 0.04-1.312 0.04-2.046 0.04-70.1 0-133.396 34.44-157.402 85.7-6.292 13.304-9.458 26.766-9.458 40.072 0 12.958 3.322 25.376 9.804 37.102 15.134 27.034 47.554 48.014 91.358 59.084z m14.01-398.594c-3.394-26.034 2.046-49.406 15.014-64.216 8.376-9.564 19.336-14.578 31.62-14.578l1.428 0.038c34.734 1.002 67.966 39.764 74.102 86.394 3.436 26.112-2.354 50.64-15.476 65.644-8.376 9.564-19.18 14.618-31.996 14.618H404.334c-34.048-1.006-68.012-41.308-74.112-87.9z m66.82 216.01l1.428 0.04c11.656 0.116 23.002 1.852 33.732 5.128 3.668 2.506 7.218 4.938 10.652 7.252 24.78 16.93 41.144 28.116 45.738 46.048 1.042 4.474 1.582 8.988 1.582 13.346 0 46.128-34.35 69.5-102.086 69.5-51.38 0-91.558-31.548-91.558-71.814 0-37.022 46.97-69.5 100.512-69.5z" fill="#FFFFFF" p-id="6989"></path><path d="M693.804 361.022a12.36 12.36 0 0 1 12.352 12.342v89.516h89.386c6.794 0 12.352 5.554 12.352 12.38v25.494c0 6.826-5.556 12.38-12.352 12.38h-89.386v89.506a12.334 12.334 0 0 1-12.352 12.342h-25.474c-6.832 0-12.388-5.516-12.388-12.342v-89.506h-89.388c-6.79 0-12.348-5.554-12.348-12.38V475.26c0-6.828 5.558-12.38 12.348-12.38h89.388v-89.516c0-6.788 5.556-12.342 12.388-12.342h25.474m0-19.754h-25.474c-17.722 0-32.142 14.398-32.142 32.096v69.762h-69.634c-17.702 0-32.102 14.416-32.102 32.134v25.494c0 17.718 14.4 32.134 32.102 32.134h69.634v69.752c0 17.698 14.42 32.096 32.142 32.096h25.474c17.704 0 32.106-14.398 32.106-32.096v-69.752h69.632c17.704 0 32.106-14.416 32.106-32.134V475.26c0-17.718-14.402-32.134-32.106-32.134h-69.632v-69.762c0-17.698-14.402-32.096-32.106-32.096z" fill="#BF2C19" p-id="6990"></path><path d="M555.516 246.396a12.384 12.384 0 0 1 11.774 8.6c1.696 5.09-0.156 10.684-4.516 13.808l-35.16 25.534a12.42 12.42 0 0 1-7.256 2.314h-12.622c16.288 19.516 25.822 47.286 25.822 78.564 0 34.48-17.448 67.148-49.134 91.948-24.508 19.128-25.474 24.336-25.474 35.29 0.31 6.016 17.408 25.532 36.204 38.866 43.846 31.048 60.172 61.518 60.172 112.39 0 53.068-40.294 99.004-102.626 117.094-19.992 5.784-41.608 8.754-64.302 8.754-25.25 0-49.566-2.932-72.182-8.678-43.804-11.07-76.226-32.05-91.356-59.088-6.484-11.724-9.804-24.144-9.804-37.102 0-13.306 3.166-26.768 9.458-40.072 24.006-51.26 87.302-85.7 157.402-85.7 0.736 0 1.35 0 2.046-0.04-5.712-10.03-8.492-20.392-8.492-31.348 0-5.438 0.734-10.992 2.162-16.622-73.574-1.698-128.572-55.616-128.572-126.66 0-50.254 40.064-99.122 97.376-118.908 17.136-5.94 34.63-8.948 51.844-8.948h157.236m-151.18 213.79H404.916c12.816 0 23.62-5.054 31.996-14.618 13.124-15.004 18.912-39.532 15.476-65.644-6.136-46.628-39.368-85.39-74.102-86.394l-1.428-0.038c-12.284 0-23.244 5.014-31.62 14.578-12.968 14.81-18.41 38.182-15.014 64.216 6.098 46.594 40.062 86.896 74.112 87.9m-16.248 269.428c67.736 0 102.086-23.372 102.086-69.5 0-4.358-0.54-8.872-1.582-13.346-4.594-17.934-20.958-29.12-45.738-46.048-3.434-2.314-6.984-4.746-10.652-7.252-10.73-3.278-22.078-5.014-33.732-5.128l-1.428-0.04c-53.542 0-100.512 32.476-100.512 69.5 0 40.264 40.178 71.814 91.558 71.814m167.428-502.968h-157.238c-19.48 0-39.098 3.376-58.314 10.036-31.566 10.898-58.888 29.634-78.992 54.174-20.422 24.928-31.668 54.546-31.668 83.398 0 74.446 53.018 133.398 126.42 144.552a80.98 80.98 0 0 0 1.03 11.734c-67.378 7.382-125.912 43.986-150.132 95.702-7.502 15.864-11.322 32.188-11.322 48.452 0 16.236 4.128 31.936 12.272 46.66 17.858 31.912 54.706 56.274 103.802 68.682 24.228 6.154 50.152 9.28 77.022 9.28 24.446 0 47.928-3.208 69.792-9.532 71.016-20.612 116.89-74.02 116.89-136.07 0-57.568-19.208-93.6-68.51-128.512-12.92-9.166-23.764-20.82-27.654-26.352 0.692-1.238 3.804-5.294 17.662-16.11 36.592-28.64 56.734-66.818 56.734-107.52 0-23.586-4.814-45.87-13.852-65.066l34.882-25.332c11.41-8.216 16.114-22.652 11.718-35.972a32.056 32.056 0 0 0-30.542-22.204z m-150.844 213.786c-21.694-0.862-49.684-31.16-54.862-70.708-2.622-20.1 1.224-38.288 10.29-48.638 4.566-5.214 9.976-7.78 16.532-7.836l1.128 0.03c24.542 0.708 50.284 33.056 55.042 69.224 2.664 20.246-1.46 39.428-10.76 50.062-4.698 5.364-10.144 7.868-17.126 7.868h-0.244v-0.002z m-16.584 269.428c-40.264 0-71.804-22.868-71.804-52.06 0-22.96 35.14-49.644 80.498-49.746l1.15 0.032 0.344 0.008c8.732 0.086 17.26 1.252 25.394 3.468 2.764 1.888 5.46 3.728 8.09 5.502 22.824 15.594 34.922 24.254 37.648 34.418 0.672 2.96 1.014 5.864 1.014 8.632-0.002 13.604-0.002 49.746-82.334 49.746z" fill="#BF2C19" p-id="6991"></path><path d="M728.078 956.122H294.83c-124.896 0-226.506-101.636-226.506-226.566V296.358c0-124.908 101.61-226.526 226.506-226.526h433.248c124.918 0 226.544 101.62 226.544 226.526v433.198c0.002 124.928-101.626 226.566-226.544 226.566zM294.83 89.636c-113.976 0-206.702 92.734-206.702 206.72v433.198c0 114.008 92.726 206.762 206.702 206.762h433.248c113.996 0 206.74-92.754 206.74-206.762V296.358c0-113.986-92.744-206.72-206.74-206.72H294.83z" fill="#BF2C19" p-id="6992"></path></svg>