<svg xmlns="http://www.w3.org/2000/svg" xmlns:xlink="http://www.w3.org/1999/xlink" width="40" height="40" viewBox="0 0 40 40">
    <defs>
        <circle id="a" cx="20" cy="20" r="20"/>
    </defs>
    <g fill="none" fill-rule="evenodd">
        <mask id="b" fill="#fff">
            <use xlink:href="#a"/>
        </mask>
        <use fill="#00ABE1" xlink:href="#a"/>
        <g mask="url(#b)">
            <path fill="#FFF" d="M20 9.821c-6.213 0-11.25 4.198-11.25 9.375 0 5.178 5.037 9.375 11.25 9.375.852 0 1.68-.08 2.478-.229l.565-.12-.005.002a.54.54 0 0 1 .439.092l.474.345 2.082 1.512.004.003a.267.267 0 0 0 .418-.189l.003-.015.26-2.472.063-.59a.53.53 0 0 1 .237-.388v-.002c.14-.094.28-.19.415-.29 2.34-1.717 3.817-4.231 3.817-7.034 0-5.177-5.037-9.375-11.25-9.375"/>
            <path fill="#00ABE1" d="M17.805 23.319a.534.534 0 0 0 .84.647h.001l3.822-3.823a1.34 1.34 0 0 0 0-1.894l-3.823-3.822a.536.536 0 0 0-.84.648l1.762 3.056a2.148 2.148 0 0 1-.032 2.186l-1.73 3.002" opacity=".657"/>
            <path fill="#00ABE1" d="M22.627 23.319a.534.534 0 0 0 .84.647l3.823-3.823a1.34 1.34 0 0 0 0-1.894l-3.823-3.822a.536.536 0 0 0-.84.648l1.761 3.056a2.148 2.148 0 0 1-.032 2.186l-1.73 3.002"/>
            <path fill="#00ABE1" d="M12.984 23.319a.534.534 0 0 0 .84.647l3.823-3.823a1.34 1.34 0 0 0 0-1.894l-3.823-3.822a.536.536 0 0 0-.84.648l1.761 3.056a2.148 2.148 0 0 1-.032 2.186l-1.73 3.002" opacity=".33"/>
        </g>
    </g>
</svg>
