<svg xmlns="http://www.w3.org/2000/svg" xmlns:xlink="http://www.w3.org/1999/xlink" width="32" height="32" viewBox="0 0 32 32">
    <defs>
        <path id="a" d="M16 0c8.837 0 16 7.163 16 16s-7.163 16-16 16S0 24.837 0 16 7.163 0 16 0zm-.402 11.206c-.972-.982-3.557.038-5.774 2.276-1.66 1.677-2.624 3.454-2.624 4.991 0 2.94 3.732 4.727 7.384 4.727 4.786 0 7.97-2.809 7.97-5.039 0-1.347-1.123-2.112-2.133-2.428-.248-.075-.418-.126-.288-.455.281-.714.31-1.33.006-1.77-.572-.824-2.135-.78-3.927-.022 0-.001-.563.249-.419-.202.276-.895.234-1.645-.195-2.078zm-1.69 3.944c2.915-.291 5.43 1.04 5.619 2.97.189 1.933-2.02 3.735-4.934 4.026-2.913.29-5.428-1.04-5.617-2.972-.19-1.931 2.02-3.733 4.933-4.024zm.977 1.487c-1.387-.364-2.954.333-3.556 1.567-.613 1.259-.02 2.656 1.38 3.112 1.451.473 3.162-.251 3.756-1.61.587-1.327-.145-2.695-1.58-3.069zm-2.697 2.48c.278-.44.861-.636 1.313-.445.456.196.602.72.325 1.179-.282.454-.885.653-1.34.443-.448-.206-.58-.733-.298-1.176zm1.933-.725c.102-.171.318-.255.491-.186.176.065.24.264.142.441-.102.176-.327.26-.503.187-.174-.072-.228-.269-.13-.442zm9.479-8.039a4.63 4.63 0 0 0-4.435-1.45.68.68 0 0 0 .28 1.332 3.293 3.293 0 0 1 3.154 1.03c.82.92 1.044 2.174.692 3.273l-.023.099a.68.68 0 0 0 .458.759.673.673 0 0 0 .848-.438 4.742 4.742 0 0 0-.974-4.605zm-1.775 1.618a2.254 2.254 0 0 0-2.16-.705.586.586 0 0 0 .241 1.145c.375-.08.782.038 1.057.345.275.309.349.729.231 1.097l-.021.093a.58.58 0 0 0 1.125.267c.241-.753.09-1.612-.473-2.242z"/>
    </defs>
    <use fill="#FB3F3F" fill-rule="evenodd" xlink:href="#a"/>
</svg>
